 http://img14.imageshack.us/img14/9325/rulesofsinglelife2011.jpg

Country.......: Finland, Bulgaria, Norway
Genre.........: Documentary
Date release..: 28.01.2011 [World]
Director......: Tonislav Hristov
Writers.......: Tonislav Hristov
Duration......: 79 min.
More..........: http://www.imdb.com/title/tt1433819
Trailer.......:

Pilot :
Tonislav, Zoran, Kiril and Hristiyan are best friends who are not lucky in love. Each of them have already experienced many disappointments in relationships, but this did not discourage them for further exploration. Friends agree that within one year they manage to find their second halves.

Cats :
Zoran Atanasov   	 ...  	Himself
Hristiyan Dimov 	... 	Himself
Radost Dimova 	... 	Herself
Tonislav Hristov 	... 	Himself
Kiril Jovchev 	... 	Himself 

Data Technical :
!!! SAMPLE !!!
Audio.....: Bulgarian
Subtitles.: English .sub
Format                           : AVI
Format/Info                      : Audio Video Interleave
File size                        : 699 MiB
Duration                         : 1h 19mn
Overall bit rate                 : 1 229 Kbps
Writing application              : Nandub v1.0rc2
Writing library                  : Nandub build 1852/release
Video
ID                               : 0
Format                           : MPEG-4 Visual
Format profile                   : Advanced Simple@L5
Format settings, BVOP            : Yes
Format settings, QPel            : No
Format settings, GMC             : No warppoints
Format settings, Matrix          : Default (H.263)
Muxing mode                      : Packed bitstream
Codec ID                         : XVID
Codec ID/Hint                    : XviD
Duration                         : 1h 19mn
Bit rate                         : 1 065 Kbps
Width                            : 624 pixels
Height                           : 352 pixels
Display aspect ratio             : 16:9
Frame rate                       : 25.000 fps
Color space                      : YUV
Chroma subsampling               : 4:2:0
Bit depth                        : 8 bits
Scan type                        : Progressive
Bits/(Pixel*Frame)               : 0.194
Stream size                      : 606 MiB (87%)
Writing library                  : XviD 1.2.1 (UTC 2008-12-04)
Audio
ID                               : 1
Format                           : MPEG Audio
Format version                   : Version 1
Format profile                   : Layer 3
Mode                             : Joint stereo
Codec ID                         : 55
Codec ID/Hint                    : MP3
Duration                         : 1h 19mn
Bit rate mode                    : Variable
Bit rate                         : 151 Kbps
Minimum bit rate                 : 128 Kbps
Channel(s)                       : 2 channels
Sampling rate                    : 48.0 KHz
Stream size                      : 86.1 MiB (12%)
Alignment                        : Aligned on interleaves
Interleave, duration             : 24 ms (0.60 video frame)
Interleave, preload duration     : 517 ms
Writing library                  : LAME3.90.
Encoding settings                : -m j -V 5 -q 2 -lowpass 18 --vbr-new -b 128

Screen : 
http://img847.imageshack.us/img847/7210/rulesofsinglelife2011s1.jpg 
http://img51.imageshack.us/img51/5910/rulesofsinglelife2011s2.jpg 
http://img717.imageshack.us/img717/2126/rulesofsinglelife2011s3.jpg 
http://img571.imageshack.us/img571/6927/rulesofsinglelife2011s4.jpg 
http://img651.imageshack.us/img651/7836/rulesofsinglelife2011s5.jpg